#!OML:ASF E:\motion texture\Top Level 1\Subject 1\Session 1\male.ASF
:FULLY-SPECIFIED
:DEGREES
571
root -20.9656 17.3472 3.08739 472.081 -81.1821 -463.675
lowerback 3.24273 3.4959 6.5937
upperback 1.9151 4.73305 2.98526
thorax 0.446807 2.36177 -0.723748
lowerneck -17.7955 -2.21489 -3.52239
upperneck 9.93016 -3.36599 8.27616
head 6.12622 -1.1164 2.87706
rclavicle 6.65929e-015 1.86858e-014
rhumerus 12.3481 48.1595 -79.0305
rradius 85.0147
rwrist 37.9317
rhand -43.7705 -42.5734
rfingers 7.12502
rthumb -16.6003 -431.883
lclavicle 6.65929e-015 1.86858e-014
lhumerus -4.38509 -24.0407 102.644
lradius 84.3981
lwrist 48.1862
lhand -15.2788 54.0175
lfingers 7.12502
lthumb 10.8958 83.7148
rfemur -6.12642 -2.31456 31.2629
rtibia 36.6055
rfoot -16.5175 -20.2557
rtoes -9.41928
lfemur -38.8159 -0.338899 -5.16265
ltibia 24.276
lfoot -3.01494 6.03705
ltoes -13.4826
572
root -21.1249 17.3346 3.09636 471.371 -81.2864 -462.909
lowerback 3.37669 3.4801 6.46865
upperback 2.08617 4.70918 2.92048
thorax 0.542407 2.35422 -0.723135
lowerneck -17.8692 -2.2755 -3.58911
upperneck 9.74361 -3.43964 8.41383
head 6.08793 -1.14642 2.92326
rclavicle -1.17283e-014 -5.68524e-014
rhumerus 10.6113 48.829 -79.9323
rradius 85.0846
rwrist 37.8891
rhand -43.7672 -42.782
rfingers 7.12502
rthumb -16.5971 -432.092
lclavicle -1.17283e-014 -5.68524e-014
lhumerus -5.64025 -24.6086 102.969
lradius 84.6826
lwrist 48.8832
lhand -15.2082 53.9414
lfingers 7.12502
lthumb 10.9639 83.6351
rfemur -6.4687 -2.57528 31.0701
rtibia 37.7921
rfoot -16.0141 -20.3084
rtoes -9.6491
lfemur -39.0336 -0.277671 -5.49503
ltibia 25.0453
lfoot -2.88082 5.69177
ltoes -12.9701
573
root -21.2844 17.3234 3.10598 470.577 -81.4003 -462.052
lowerback 3.50635 3.4571 6.33575
upperback 2.25782 4.67463 2.86115
thorax 0.639288 2.34088 -0.712096
lowerneck -17.937 -2.33419 -3.65881
upperneck 9.55032 -3.50916 8.5506
head 6.04652 -1.17501 2.97006
rclavicle 5.96354e-014 -1.70955e-014
rhumerus 8.73579 49.4533 -80.9557
rradius 85.1478
rwrist 37.8294
rhand -43.7609 -42.9558
rfingers 7.12502
rthumb -16.591 -432.267
lclavicle 5.96354e-014 -1.70955e-014
lhumerus -6.94148 -25.2007 103.328
lradius 84.95
lwrist 49.529
lhand -15.1138 53.7963
lfingers 7.12502
lthumb 11.0549 83.4851
rfemur -6.87045 -2.84594 30.8664
rtibia 39.0149
rfoot -15.4596 -20.3614
rtoes -9.76754
lfemur -39.2456 -0.22233 -5.84429
ltibia 25.8476
lfoot -2.77788 5.35496
ltoes -12.4419
574
root -21.4445 17.3139 3.11643 469.741 -81.521 -461.153
lowerback 3.63569 3.42873 6.19801
upperback 2.43383 4.6319 2.80719
thorax 0.739619 2.32306 -0.692454
lowerneck -18.0038 -2.39118 -3.72426
upperneck 9.35497 -3.57519 8.67582
head 6.00387 -1.20283 3.01279
rclavicle -4.85035e-014 -2.54444e-014
rhumerus 6.72916 50.0177 -82.0967
rradius 85.2056
rwrist 37.7539
rhand -43.7481 -43.0968
rfingers 7.12502
rthumb -16.5787 -432.409
lclavicle -4.85035e-014 -2.54444e-014
lhumerus -8.27747 -25.8066 103.72
lradius 85.1958
lwrist 50.0995
lhand -14.9822 53.5902
lfingers 7.12502
lthumb 11.1819 83.2722
rfemur -7.31948 -3.12025 30.6494
rtibia 40.267
rfoot -14.8616 -20.4096
rtoes -9.78748
lfemur -39.4309 -0.178667 -6.20484
ltibia 26.6639
lfoot -2.70325 5.03797
ltoes -11.9182
575
root -21.6046 17.3059 3.12747 468.824 -81.6502 -460.17
lowerback 3.76572 3.39302 6.05326
upperback 2.61013 4.57874 2.75896
thorax 0.838337 2.29941 -0.662869
lowerneck -18.0665 -2.44565 -3.78945
upperneck 9.15675 -3.63669 8.79563
head 5.95939 -1.22912 3.05419
rclavicle -5.64548e-014 -1.11319e-014
rhumerus 4.60204 50.5088 -83.3479
rradius 85.2602
rwrist 37.6668
rhand -43.7349 -43.1834
rfingers 7.12502
rthumb -16.566 -432.496
lclavicle -5.64548e-014 -1.11319e-014
lhumerus -9.64446 -26.4269 104.148
lradius 85.4198
lwrist 50.6079
lhand -14.8231 53.3183
lfingers 7.12502
lthumb 11.3353 82.992
rfemur -7.82377 -3.39988 30.4221
rtibia 41.5441
rfoot -14.2241 -20.4553
rtoes -9.70287
lfemur -39.5987 -0.147155 -6.57701
ltibia 27.4913
lfoot -2.66276 4.73707
ltoes -11.3899
576
root -21.7646 17.2996 3.13907 467.848 -81.7864 -459.125
lowerback 3.89637 3.35054 5.90139
upperback 2.78556 4.51598 2.71659
thorax 0.934405 2.2703 -0.623161
lowerneck -18.1179 -2.49588 -3.85213
upperneck 8.95462 -3.69156 8.90762
head 5.9113 -1.25315 3.09336
rclavicle -1.59028e-015 3.83654e-014
rhumerus 2.36769 50.9158 -84.6984
rradius 85.3129
rwrist 37.5724
rhand -43.7269 -43.2186
rfingers 7.12502
rthumb -16.5583 -432.532
lclavicle -1.59028e-015 3.83654e-014
lhumerus -11.0359 -27.0549 104.61
lradius 85.619
lwrist 51.0525
lhand -14.6241 53.0062
lfingers 7.12502
lthumb 11.5273 82.6692
rfemur -8.38178 -3.67961 30.1849
rtibia 42.8417
rfoot -13.554 -20.4985
rtoes -9.50596
lfemur -39.743 -0.128586 -6.95733
ltibia 28.3197
lfoot -2.65714 4.45575
ltoes -10.8691
577
root -21.9245 17.2947 3.1512 466.807 -81.9304 -458.011
lowerback 4.02747 3.30083 5.74233
upperback 2.95997 4.44299 2.67974
thorax 1.02782 2.23538 -0.573592
lowerneck -18.1611 -2.54195 -3.91195
upperneck 8.74984 -3.73995 9.01092
head 5.86047 -1.27496 3.12996
rclavicle 9.14409e-015 2.50469e-014
rhumerus 0.0468172 51.2287 -86.1295
rradius 85.3715
rwrist 37.4692
rhand -43.6904 -43.1836
rfingers 7.12502
rthumb -16.5232 -432.5
lclavicle 9.14409e-015 2.50469e-014
lhumerus -12.4428 -27.6874 105.107
lradius 85.795
lwrist 51.4371
lhand -14.4198 52.6129
lfingers 7.12502
lthumb 11.7243 82.2648
rfemur -8.99374 -3.9591 29.9376
rtibia 44.1534
rfoot -12.8584 -20.5394
rtoes -9.21587
lfemur -39.8626 -0.12604 -7.34478
ltibia 29.1408
lfoot -2.68749 4.19365
ltoes -10.3588
578
root -22.084 17.2914 3.16386 465.714 -82.0805 -456.844
lowerback 4.15986 3.24478 5.5772
upperback 3.13324 4.36102 2.64864
thorax 1.11826 2.19526 -0.514575
lowerneck -18.1982 -2.58343 -3.96857
upperneck 8.5447 -3.78141 9.10466
head 5.80788 -1.29425 3.16371
rclavicle 1.98785e-014 -3.24019e-014
rhumerus -2.33444 51.4381 -87.6158
rradius 85.4383
rwrist 37.3627
rhand -43.6574 -43.0912
rfingers 7.12502
rthumb -16.4914 -432.41
lclavicle 1.98785e-014 -3.24019e-014
lhumerus -13.8543 -28.3216 105.636
lradius 85.9471
lwrist 51.7639
lhand -14.2809 51.9907
lfingers 7.12502
lthumb 11.8583 81.635
rfemur -9.65807 -4.2347 29.6812
rtibia 45.4725
rfoot -12.1479 -20.5776
rtoes -8.83576
lfemur -39.9545 -0.138822 -7.73696
ltibia 29.9466
lfoot -2.75376 3.95145
ltoes -9.8631
579
root -22.2432 17.2896 3.17698 464.559 -82.2366 -455.614
lowerback 4.29324 3.18162 5.40671
upperback 3.3036 4.26917 2.62304
thorax 1.20419 2.14945 -0.446759
lowerneck -18.225 -2.61934 -4.02236
upperneck 8.33909 -3.81467 9.18905
head 5.75272 -1.3105 3.19489
rclavicle 7.15625e-015 1.90833e-014
rhumerus -4.75141 51.5402 -89.1338
rradius 85.5188
rwrist 37.2507
rhand -43.6074 -42.9266
rfingers 7.12502
rthumb -16.4433 -432.25
lclavicle 7.15625e-015 1.90833e-014
lhumerus -15.2639 -28.9515 106.196
lradius 86.0751
lwrist 52.0296
lhand -14.1017 51.3462
lfingers 7.12502
lthumb 12.031 80.9804
rfemur -10.3731 -4.50606 29.4162
rtibia 46.7913
rfoot -11.4327 -20.6136
rtoes -8.36332
lfemur -40.0168 -0.168319 -8.13282
ltibia 30.7291
lfoot -2.85605 3.72809
ltoes -9.38341
580
root -22.402 17.2893 3.19055 463.364 -82.3969 -454.342
lowerback 4.42764 3.11196 5.23242
upperback 3.47201 4.1682 2.60315
thorax 1.28687 2.09838 -0.370704
lowerneck -18.2435 -2.64916 -4.07189
upperneck 8.13396 -3.83928 9.26281
head 5.69551 -1.32346 3.22289
rclavicle -3.81667e-014 1.15295e-014
rhumerus -7.1714 51.5338 -90.6511
rradius 85.6209
rwrist 37.1276
rhand -43.5337 -42.696
rfingers 7.12502
rthumb -16.3723 -432.025
lclavicle -3.81667e-014 1.15295e-014
lhumerus -16.6607 -29.5746 106.782
lradius 86.1818
lwrist 52.2361
lhand -13.8891 50.6958
lfingers 7.12502
lthumb 12.236 80.3178
rfemur -11.1368 -4.76915 29.1436
rtibia 48.1028
rfoot -10.7262 -20.6456
rtoes -7.81863
lfemur -40.0463 -0.213373 -8.52923
ltibia 31.4818
lfoot -2.99369 3.52556
ltoes -8.91711
581
root -22.5602 17.2903 3.20449 462.119 -82.5607 -453.017
lowerback 4.56247 3.03506 5.05444
upperback 3.63637 4.05724 2.58934
thorax 1.36453 2.04157 -0.28607
lowerneck -18.25 -2.67154 -4.11679
upperneck 7.93019 -3.8536 9.32515
head 5.63575 -1.33241 3.24761
rclavicle -5.36719e-015 1.78906e-015
rhumerus -9.57367 51.4178 -92.1467
rradius 85.7479
rwrist 36.9993
rhand -43.4436 -42.3859
rfingers 7.12502
rthumb -16.2855 -431.722
lclavicle -5.36719e-015 1.78906e-015
lhumerus -18.037 -30.1867 107.391
lradius 86.2676
lwrist 52.3878
lhand -13.6447 50.0409
lfingers 7.12502
lthumb 12.4717 79.6488
rfemur -11.9477 -5.02398 28.8647
rtibia 49.399
rfoot -10.0344 -20.6742
rtoes -7.21245
lfemur -40.0436 -0.272578 -8.92574
ltibia 32.1999
lfoot -3.16622 3.34158
ltoes -8.47019
582
root -22.7177 17.2927 3.2188 460.84 -82.7278 -451.66
lowerback 4.69801 2.95161 4.87321
upperback 3.79725 3.93718 2.58112
thorax 1.43784 1.97949 -0.193562
lowerneck -18.249 -2.68641 -4.15831
upperneck 7.73044 -3.85745 9.37658
head 5.57504 -1.33708 3.26942
rclavicle -3.97569e-016 -1.55052e-014
rhumerus -11.9266 51.1964 -93.5895
rradius 85.9035
rwrist 36.8642
rhand -43.3366 -42.0093
rfingers 7.12502
rthumb -16.1825 -431.354
lclavicle -3.97569e-016 -1.55052e-014
lhumerus -19.3811 -30.7861 108.019
lradius 86.3344
lwrist 52.489
lhand -13.372 49.3825
lfingers 7.12502
lthumb 12.7346 78.9742
rfemur -12.8033 -5.26792 28.5785
rtibia 50.672
rfoot -9.37025 -20.6984
rtoes -6.55244
lfemur -40.0062 -0.344621 -9.32204
ltibia 32.8782
lfoot -3.3732 3.17809
ltoes -8.04961
583
root -22.8745 17.2963 3.2334 459.512 -82.8966 -450.251
lowerback 4.83403 2.86032 4.69101
upperback 3.95294 3.80648 2.57847
thorax 1.50543 1.91142 -0.0943949
lowerneck -18.237 -2.69238 -4.19355
upperneck 7.53479 -3.8496 9.41568
head 5.51263 -1.33693 3.28753
rclavicle -3.1408e-014 2.78299e-015
rhumerus -14.209 50.8761 -94.958
rradius 86.0935
rwrist 36.7201
rhand -43.2146 -41.5601
rfingers 7.12502
rthumb -16.065 -430.914
lclavicle -3.1408e-014 2.78299e-015
lhumerus -20.6857 -31.3698 108.66
lradius 86.3845
lwrist 52.5436
lhand -13.0743 48.7212
lfingers 7.12502
lthumb 13.0216 78.2947
rfemur -13.7018 -5.50142 28.2876
rtibia 51.9144
rfoot -8.73555 -20.7208
rtoes -5.84343
lfemur -39.9359 -0.429031 -9.71592
ltibia 33.5144
lfoot -3.61256 3.03236
ltoes -7.64894
